PathFileType	4	(X/Y/Z)	/Users/niels/Desktop/University/Third Semester/Perception and Action/Exam/Gymnastics Motion Tracking/Code for Gym Tracking/Analyzed Data/Webcam_Backflip/id4_1_pure_Sports2D/id4_1_pure_Sports2D_px_person00.trc
DataRate	CameraRate	NumFrames	NumMarkers	Units	OrigDataRate	OrigDataStartFrame	OrigNumFrames
29.8125	29.8125	11	22	m	29.8125	80	160
Frame#	Time	Hip			RHip			RKnee			RAnkle			RBigToe			RSmallToe			RHeel			LHip			LKnee			LAnkle			LBigToe			LSmallToe			LHeel			Neck			Head			Nose			RShoulder			RElbow			RWrist			LShoulder			LElbow			LWrist		
		X1	Y1	Z1	X2	Y2	Z2	X3	Y3	Z3	X4	Y4	Z4	X5	Y5	Z5	X6	Y6	Z6	X7	Y7	Z7	X8	Y8	Z8	X9	Y9	Z9	X10	Y10	Z10	X11	Y11	Z11	X12	Y12	Z12	X13	Y13	Z13	X14	Y14	Z14	X15	Y15	Z15	X16	Y16	Z16	X17	Y17	Z17	X18	Y18	Z18	X19	Y19	Z19	X20	Y20	Z20	X21	Y21	Z21	X22	Y22	Z22
80	2.683438155136268	0.7487482805009976	-0.5797646807615792	0.0	0.7364527665535472	-0.5794692986870282	0.0	0.8000693195592925	-0.673332099626584	0.0	0.7561145120404131	-0.763647960343494	0.0	0.790623849698584	-0.7869468787869603	0.0	0.7804777334473675	-0.786837041598195	0.0	0.745340170786499	-0.7783819111683814	0.0	0.7612068861773106	-0.5786762040968809	0.0	0.8027564421435605	-0.6715580678267565	0.0	0.7596928326534059	-0.7614348114627985	0.0	0.7891804656080728	-0.7849661429532617	0.0	0.7881714052481331	-0.7799069729545643	0.0	0.748118120224397	-0.7724869127335051	0.0	0.7647439585473736	-0.4389935685785237	0.0	0.803885687237899	-0.3708423309565168	0.0	0.7991117736664476	-0.40753027476176096	0.0	0.750695507592228	-0.44378706110146615	0.0	0.8085510331948526	-0.40082981564215964	0.0	0.8361918544226212	-0.35567404478126047	0.0	0.7813578366254877	-0.442691591134486	0.0	0.8323047810599106	-0.40533453805918485	0.0	0.8735624702154497	-0.35903763146828876	0.0
81	2.716981132075471	0.7462985805826763	-0.5570505797189625	0.0	0.7335596982877979	-0.5570506785468046	0.0	0.7992423407570423	-0.6512519629463993	0.0	0.7570078944043414	-0.7448155135264558	0.0	0.7930188063519807	-0.7691118159109634	0.0	0.7835660993599491	-0.768875542963637	0.0	0.7463752892799562	-0.7604951439543917	0.0	0.7590307436686918	-0.5562570010517796	0.0	0.8037901297273162	-0.6493788627759066	0.0	0.7616511106835007	-0.7416736441244481	0.0	0.7939407779153708	-0.7665516693556631	0.0	0.7926549348401412	-0.7610425376237026	0.0	0.7494419737016829	-0.7534425640721957	0.0	0.7635112473954792	-0.41652822253684213	0.0	0.8039804386240539	-0.3485841089455694	0.0	0.7991219907972344	-0.3846789471037623	0.0	0.7492281111656122	-0.42128759278297956	0.0	0.8070024615537364	-0.3793962033764493	0.0	0.8350173457068383	-0.3347184572107843	0.0	0.7815468041729308	-0.4204490201859225	0.0	0.8327935258166179	-0.38448990712217446	0.0	0.8776039363371771	-0.3404329183152855	0.0
82	2.7505241090146746	0.7444929670844852	-0.5365268693937691	0.0	0.7314328729410848	-0.5367981687685655	0.0	0.7965822928103313	-0.6322600616641049	0.0	0.7570940315824847	-0.7295528983879489	0.0	0.7944141438420448	-0.7544919168384677	0.0	0.7853979987772742	-0.754495859084123	0.0	0.7467323194809418	-0.7458170681203041	0.0	0.7574009780873106	-0.5357400819750722	0.0	0.8043422462221078	-0.6301387587541908	0.0	0.7633689270718167	-0.7252426954634303	0.0	0.7975696119595496	-0.7510020659724896	0.0	0.7960735816563196	-0.7454638463948523	0.0	0.7505663164132567	-0.7373482959613816	0.0	0.7619421105319296	-0.3955738497267972	0.0	0.8030850251814259	-0.32745305751302417	0.0	0.7985810680334721	-0.36333763411325015	0.0	0.7478610730602973	-0.4007899447446991	0.0	0.8040824278071733	-0.35906686943052674	0.0	0.8321522922628571	-0.3139935975270978	0.0	0.7810447776839624	-0.39961154026016776	0.0	0.8319514882337273	-0.36418167770737725	0.0	0.8788746425931018	-0.32147883930914195	0.0
83	2.784067085953878	0.7433017635887026	-0.5192046428604927	0.0	0.7302196855430287	-0.519683486661296	0.0	0.7925373428115663	-0.6170758871248343	0.0	0.75636697520947	-0.718045275272249	0.0	0.7946225976827512	-0.7434168932902853	0.0	0.7857576564400999	-0.7438584442449225	0.0	0.7462854134188398	-0.7345708820950011	0.0	0.7562185407513257	-0.5182244984379415	0.0	0.8041983330706569	-0.6145929797837733	0.0	0.764554058508504	-0.7125228509850067	0.0	0.7993315047859628	-0.7389069604047069	0.0	0.797971372370138	-0.7335410246419242	0.0	0.751336137938851	-0.7246822953148233	0.0	0.7600396257076982	-0.37722994047523617	0.0	0.8013873825314705	-0.3085146374646656	0.0	0.7974604719279782	-0.3445865036989961	0.0	0.7465293661963421	-0.38336262921977693	0.0	0.8002872925710703	-0.3411881987063443	0.0	0.8282337965344018	-0.2949544105255661	0.0	0.7796001989560013	-0.38128282156822696	0.0	0.8298704263066917	-0.3455645708731143	0.0	0.877679405944879	-0.3033251254186275	0.0
84	2.817610062893081	0.742694205589375	-0.5056084667739202	0.0	0.729980886049071	-0.506260152960517	0.0	0.7877922310106642	-0.6058939729790679	0.0	0.7547936223942767	-0.7100758562937696	0.0	0.7935392847393683	-0.7359537944786666	0.0	0.7846327584739653	-0.7368440479992248	0.0	0.744827539492186	-0.7266522452028453	0.0	0.7554272151253401	-0.5043848293803175	0.0	0.8031849543715489	-0.6030414081068269	0.0	0.7649040622586271	-0.7035519705656635	0.0	0.7989847164290528	-0.7306212443094247	0.0	0.7981598715622331	-0.7254463648026962	0.0	0.7513939023256168	-0.7156080179805662	0.0	0.7579068276733679	-0.3623048426657346	0.0	0.7990054963894323	-0.2926200675172822	0.0	0.7957761546301687	-0.32914492799960704	0.0	0.7452143076217667	-0.3695256058630433	0.0	0.7962006326886448	-0.3264005873083423	0.0	0.8239426915984167	-0.27849075278484736	0.0	0.77718090138152	-0.36630666518537175	0.0	0.8267945251741474	-0.3295993506940951	0.0	0.8745885616543377	-0.2870876116030816	0.0
85	2.8511530398322846	0.7426079436991356	-0.4959927675026854	0.0	0.7306503292893425	-0.496803866652533	0.0	0.7830281873905605	-0.598634075249166	0.0	0.7523914303186189	-0.705383882181146	0.0	0.7911193592052579	-0.7321387028965056	0.0	0.7821260953040409	-0.7333204808689217	0.0	0.7422110158206994	-0.7219315635574894	0.0	0.7549904788865759	-0.4945933550314532	0.0	0.8012499654912901	-0.5955497199600451	0.0	0.7641574560371226	-0.6982738045116936	0.0	0.7966412129135604	-0.7263561928364712	0.0	0.7966357600353594	-0.7212497821774996	0.0	0.7503572819648626	-0.7101706538664146	0.0	0.7556660396492079	-0.35143051981925805	0.0	0.7958399524019143	-0.2804186241552472	0.0	0.7935231988516614	-0.31748898828312777	0.0	0.7439290862766539	-0.3594951648589595	0.0	0.7922639270993219	-0.31469395212325757	0.0	0.8198408827524459	-0.26498165767544984	0.0	0.7739249265133946	-0.3552994812725117	0.0	0.8229415315792222	-0.3170582862509231	0.0	0.8700502223623727	-0.2737364903647928	0.0
86	2.884696016771488	0.7429155238906896	-0.49047075776416715	0.0	0.7320582574827174	-0.4913737618861228	0.0	0.7787243378784982	-0.5951523469303501	0.0	0.7493050883854755	-0.703796183366407	0.0	0.7874268050227572	-0.7319398111377963	0.0	0.7784065629097308	-0.733158851275221	0.0	0.7385312432683399	-0.7203140758771744	0.0	0.7548038918806473	-0.48900159850276353	0.0	0.7984606917567227	-0.5920887799849203	0.0	0.7621379689258558	-0.6965199639934407	0.0	0.7925580315961344	-0.7260634474317056	0.0	0.7934533929508871	-0.7207815878404417	0.0	0.7480251695899524	-0.7082580825349343	0.0	0.7534523669477213	-0.34497316144027323	0.0	0.7917135133564336	-0.27226716682883545	0.0	0.7907071458117195	-0.3098749221983298	0.0	0.7427178635011622	-0.35336357767543536	0.0	0.7887061036255228	-0.3058989388744292	0.0	0.8162231849833127	-0.25463606576319403	0.0	0.7700274357699445	-0.3486074241108717	0.0	0.8183670653890821	-0.30848043209000137	0.0	0.8641502337979461	-0.2639554813924615	0.0
87	2.918238993710691	0.7434567397428781	-0.4891022748366806	0.0	0.7339840956382896	-0.4899388628792414	0.0	0.7751236211470987	-0.5953552490275518	0.0	0.7458305830881127	-0.7052475365349411	0.0	0.7826877678187065	-0.7351859356956009	0.0	0.773718344990497	-0.736200221452546	0.0	0.7341742273814866	-0.7217402342221163	0.0	0.7546761413057587	-0.48763107171244746	0.0	0.794910012459687	-0.5926125096222435	0.0	0.7588040385309707	-0.6980348256146175	0.0	0.7870650277006652	-0.7294269277947021	0.0	0.7887380644508404	-0.723664077103948	0.0	0.7444492497644962	-0.7096331901537306	0.0	0.7514034806087623	-0.34298243773919607	0.0	0.7866747888870733	-0.2682985208522552	0.0	0.7874029550014583	-0.3064315235614327	0.0	0.7416765273345326	-0.3511601432274907	0.0	0.7856492298821677	-0.3002353111343835	0.0	0.8131923217437107	-0.24785998490802857	0.0	0.7656597708216617	-0.3463121800518505	0.0	0.8130426232298318	-0.3040582027863328	0.0	0.8567215650956183	-0.25802214592887723	0.0
88	2.9517819706498947	0.7440827909528233	-0.4919392176520955	0.0	0.7362117162559854	-0.49251669087967215	0.0	0.7723159194236441	-0.5992038311141518	0.0	0.7423479631134628	-0.7097265853194289	0.0	0.7772716045286504	-0.741511254227761	0.0	0.7684340053919044	-0.7421968811779324	0.0	0.7296898063785114	-0.7261748371532549	0.0	0.7543665398372282	-0.4904489652545379	0.0	0.7906082259014182	-0.5970842681792613	0.0	0.7542420341740964	-0.7026028925159234	0.0	0.7806242903312495	-0.7359764359840106	0.0	0.7828035980652122	-0.7294823802149741	0.0	0.7398260908998212	-0.7140889753744881	0.0	0.7496073724373254	-0.3453297620910065	0.0	0.7810233555019711	-0.26859410093513414	0.0	0.7837253275740497	-0.30727174814709834	0.0	0.7409461931933047	-0.35288150755391945	0.0	0.7832021740813905	-0.29834405055633084	0.0	0.8107402881950542	-0.24518878314991582	0.0	0.7609537265889869	-0.3483198505414168	0.0	0.80700580120629	-0.30361175755989744	0.0	0.8476427136740998	-0.25580970683785587	0.0
89	2.985324947589098	0.7446640034845818	-0.4989847934494518	0.0	0.7385443274203027	-0.49914826489777586	0.0	0.770270401016088	-0.6066635716692388	0.0	0.7391317342203486	-0.7171926266352039	0.0	0.7716262806277776	-0.7503597425080635	0.0	0.7630454281738226	-0.7507653200069451	0.0	0.725538361185103	-0.7335720205328928	0.0	0.7536613079447327	-0.49739101186440027	0.0	0.7855082565980325	-0.6054182257718809	0.0	0.7486495769241986	-0.7101262791474451	0.0	0.7738860360792869	-0.7451787109938323	0.0	0.7761886494352209	-0.7378731399833334	0.0	0.7343792273370036	-0.7215326960342706	0.0	0.7480751600498433	-0.35184381394914266	0.0	0.7751207154631751	-0.27322779874607	0.0	0.7797944133937388	-0.31248518462022445	0.0	0.7406249502876433	-0.3585047053992298	0.0	0.7813939057047957	-0.30079279873105685	0.0	0.8086491435349842	-0.24688372167993802	0.0	0.7560929616825793	-0.3544613235290741	0.0	0.800400298682014	-0.3068160291996029	0.0	0.8370863662948325	-0.2570833749767186	0.0
90	3.018867924528301	0.7451129219786311	-0.5100565823431442	0.0	0.7407849081576116	-0.5097026645838058	0.0	0.768721008000962	-0.6176254292246762	0.0	0.7361727693096322	-0.7275059845977292	0.0	0.7661929860921352	-0.7611073706736569	0.0	0.7580149717613859	-0.7614306904454677	0.0	0.7218812753098077	-0.7437943171545972	0.0	0.7524858626864106	-0.508268343775692	0.0	0.7796910459909712	-0.6173472067125285	0.0	0.742424700910565	-0.7205354464870222	0.0	0.7676362189231475	-0.7564746139678102	0.0	0.7695737396296123	-0.7485076269217494	0.0	0.7284219443294728	-0.7319003011536152	0.0	0.7467702044676192	-0.36223539200433647	0.0	0.7693550900999117	-0.2821114061109368	0.0	0.7757687452265164	-0.32195338935664797	0.0	0.7406474541980964	-0.3679178069430312	0.0	0.7800143852556293	-0.30760407346200175	0.0	0.8064446801544739	-0.2527072109706307	0.0	0.7514125973497023	-0.364491043688353	0.0	0.7934606359763429	-0.3134739519640468	0.0	0.8256207056955465	-0.26180701189184896	0.0
